<?xml version="1.0" standalone="no"?><!DOCTYPE svg PUBLIC "-//W3C//DTD SVG 1.1//EN" "http://www.w3.org/Graphics/SVG/1.1/DTD/svg11.dtd"><svg height="1024" node-id="1" sillyvg="true" template-height="1024" template-width="1024" version="1.1" viewBox="0 0 1024 1024" width="1024" xmlns="http://www.w3.org/2000/svg" xmlns:xlink="http://www.w3.org/1999/xlink"><defs node-id="43"></defs><g node-id="130"><path d="M 845.80 613.30 L 845.50 625.90 L 844.90 637.50 L 843.70 648.20 L 842.30 658.10 L 840.40 667.20 L 838.00 676.60 L 835.20 685.30 L 832.10 693.30 L 828.70 700.60 L 824.90 707.40 L 820.60 714.00 L 816.00 720.10 L 811.10 725.80 L 805.80 731.00 L 800.20 735.80 L 794.30 740.20 L 788.10 744.20 L 781.50 747.90 L 774.60 751.30 L 767.30 754.40 L 758.10 757.70 L 748.30 760.60 L 738.00 763.10 L 727.10 765.20 L 716.20 766.90 L 693.00 769.40 L 664.00 770.90 L 646.70 771.20 L 601.00 771.00 L 512.00 769.80 L 395.50 771.30 L 360.00 770.90 L 331.00 769.40 L 307.80 766.90 L 296.90 765.20 L 286.00 763.10 L 275.70 760.60 L 265.90 757.70 L 256.70 754.40 L 249.40 751.30 L 242.50 747.90 L 235.90 744.20 L 229.70 740.20 L 223.80 735.80 L 218.20 731.00 L 212.90 725.80 L 208.00 720.10 L 203.40 714.00 L 199.10 707.40 L 195.30 700.60 L 191.90 693.30 L 188.80 685.30 L 186.00 676.60 L 183.60 667.20 L 181.70 658.10 L 180.30 648.20 L 179.10 637.50 L 178.50 625.90 L 178.20 613.30 L 178.50 600.00 L 179.20 587.00 L 180.50 574.40 L 182.20 562.00 L 184.40 550.00 L 187.00 538.20 L 190.20 526.30 L 193.70 514.70 L 197.70 503.50 L 202.10 492.50 L 206.90 481.90 L 212.10 471.40 L 217.80 461.20 L 223.80 451.20 L 230.20 441.60 L 237.00 432.20 L 244.10 423.10 L 251.50 414.30 L 261.00 404.10 L 270.80 394.40 L 281.20 385.10 L 292.00 376.30 L 303.20 367.90 L 314.80 360.00 L 326.80 352.60 L 339.20 345.70 L 352.00 339.30 L 365.20 333.30 L 378.60 328.00 L 392.30 323.10 L 406.30 318.80 L 420.70 315.00 L 435.50 311.70 L 450.20 309.10 L 465.20 307.00 L 480.50 305.50 L 496.10 304.60 L 512.00 304.30 L 527.90 304.60 L 543.50 305.50 L 558.80 307.00 L 573.80 309.10 L 588.50 311.70 L 603.30 315.00 L 617.70 318.80 L 631.70 323.10 L 645.40 327.90 L 658.80 333.30 L 672.00 339.30 L 684.80 345.70 L 697.20 352.60 L 709.20 360.00 L 720.80 367.90 L 732.00 376.30 L 742.80 385.10 L 753.20 394.40 L 763.00 404.10 L 772.50 414.30 L 779.90 423.10 L 787.00 432.20 L 793.80 441.50 L 800.20 451.20 L 806.20 461.10 L 811.90 471.40 L 817.10 481.80 L 821.90 492.50 L 826.30 503.50 L 830.30 514.70 L 833.80 526.30 L 837.00 538.10 L 839.60 549.90 L 841.80 562.00 L 843.50 574.40 L 844.80 587.00 L 845.50 600.00 L 845.80 613.30 Z" fill="#d38a42" fill-rule="nonzero" group-id="1" node-id="49" stroke="none" target-height="467" target-width="667.6" target-x="178.2" target-y="304.3"></path><path d="M 845.80 613.30 L 845.50 625.90 L 844.90 637.50 L 843.70 648.20 L 842.30 658.10 L 840.40 667.20 L 838.00 676.60 L 835.20 685.30 L 832.10 693.30 L 828.70 700.60 L 824.90 707.40 L 820.60 714.00 L 816.00 720.10 L 811.10 725.80 L 805.80 731.00 L 800.20 735.80 L 794.30 740.20 L 788.10 744.20 L 781.50 747.90 L 774.60 751.30 L 767.30 754.40 L 758.10 757.70 L 748.30 760.60 L 738.00 763.10 L 727.10 765.20 L 716.20 766.90 L 693.00 769.40 L 664.00 770.90 L 646.70 771.20 L 601.00 771.00 L 512.00 769.80 L 395.50 771.30 L 360.00 770.90 L 331.00 769.40 L 307.80 766.90 L 296.90 765.20 L 286.00 763.10 L 275.70 760.60 L 265.90 757.70 L 256.70 754.40 L 249.40 751.30 L 242.50 747.90 L 235.90 744.20 L 229.70 740.20 L 223.80 735.80 L 218.20 731.00 L 212.90 725.80 L 208.00 720.10 L 203.40 714.00 L 199.10 707.40 L 195.30 700.60 L 191.90 693.30 L 188.80 685.30 L 186.00 676.60 L 183.60 667.20 L 181.70 658.10 L 180.30 648.20 L 179.10 637.50 L 178.50 625.90 L 178.20 613.30 L 178.50 600.00 L 179.20 587.00 L 180.50 574.40 L 182.20 562.00 L 184.40 550.00 L 187.00 538.20 L 190.20 526.30 L 193.70 514.70 L 197.70 503.50 L 202.10 492.50 L 206.90 481.90 L 212.10 471.40 L 217.80 461.20 L 223.80 451.20 L 230.20 441.60 L 237.00 432.20 L 244.10 423.10 L 251.50 414.30 L 261.00 404.10 L 270.80 394.40 L 281.20 385.10 L 292.00 376.30 L 303.20 367.90 L 314.80 360.00 L 326.80 352.60 L 339.20 345.70 L 352.00 339.30 L 365.20 333.30 L 378.60 328.00 L 392.30 323.10 L 406.30 318.80 L 420.70 315.00 L 435.50 311.70 L 450.20 309.10 L 465.20 307.00 L 480.50 305.50 L 496.10 304.60 L 512.00 304.30 L 527.90 304.60 L 543.50 305.50 L 558.80 307.00 L 573.80 309.10 L 588.50 311.70 L 603.30 315.00 L 617.70 318.80 L 631.70 323.10 L 645.40 327.90 L 658.80 333.30 L 672.00 339.30 L 684.80 345.70 L 697.20 352.60 L 709.20 360.00 L 720.80 367.90 L 732.00 376.30 L 742.80 385.10 L 753.20 394.40 L 763.00 404.10 L 772.50 414.30 L 779.90 423.10 L 787.00 432.20 L 793.80 441.50 L 800.20 451.20 L 806.20 461.10 L 811.90 471.40 L 817.10 481.80 L 821.90 492.50 L 826.30 503.50 L 830.30 514.70 L 833.80 526.30 L 837.00 538.10 L 839.60 549.90 L 841.80 562.00 L 843.50 574.40 L 844.80 587.00 L 845.50 600.00 L 845.80 613.30 Z" fill="#d38a42" fill-rule="nonzero" group-id="1" node-id="51" stroke="none" target-height="467" target-width="667.6" target-x="178.2" target-y="304.3"></path><path d="M 511.50 320.10 L 511.90 321.60 L 512.50 320.40 L 511.50 320.10 Z" fill="#f5d2a9" fill-rule="nonzero" group-id="1" node-id="53" stroke="none" target-height="1.5" target-width="1" target-x="511.5" target-y="320.1"></path><g node-id="132"><g node-id="135"><path d="M 754.10 225.40 L 745.20 226.60 L 736.60 228.10 L 728.20 230.20 L 720.00 232.60 L 711.90 235.50 L 704.00 238.80 L 696.30 242.50 L 688.90 246.50 L 681.80 250.90 L 674.80 255.70 L 668.10 260.90 L 661.80 266.40 L 655.70 272.10 L 649.90 278.20 L 644.40 284.70 L 639.30 291.40 L 634.50 298.30 L 630.10 305.50 L 626.10 313.00 L 622.40 320.80 L 632.50 324.40 L 635.70 317.20 L 640.10 308.50 L 647.30 296.40 L 651.90 289.70 L 656.70 283.20 L 662.30 276.70 L 668.50 269.90 L 675.10 263.60 L 682.50 257.40 L 690.70 251.30 L 697.00 247.20 L 703.80 243.20 L 711.10 239.40 L 719.00 235.80 L 726.90 232.70 L 735.30 229.90 L 744.40 227.50 L 754.10 225.40 Z" fill="#68411e" fill-rule="nonzero" group-id="1,3,6" node-id="59" stroke="none" target-height="99" target-width="131.69995" target-x="622.4" target-y="225.4"></path><path d="M 833.90 526.90 L 837.60 541.10 L 840.60 555.60 L 837.70 551.10 L 834.50 547.00 L 831.10 543.20 L 823.60 536.50 L 813.80 529.70 L 808.20 526.50 L 798.00 521.60 L 790.80 518.90 L 778.10 514.70 L 768.40 511.00 L 758.90 506.80 L 749.50 502.20 L 740.40 497.10 L 731.50 491.50 L 722.90 485.60 L 714.60 479.30 L 706.50 472.60 L 698.60 465.50 L 691.10 458.00 L 683.80 450.30 L 676.90 442.10 L 670.30 433.60 L 664.00 424.80 L 658.10 415.70 L 652.50 406.30 L 647.30 396.70 L 642.40 386.70 L 638.00 376.40 L 633.90 366.10 L 630.30 355.40 L 627.10 344.50 L 624.30 333.40 L 621.90 322.00 L 622.30 320.90 L 632.60 324.40 L 635.70 317.20 L 643.40 302.60 L 651.90 289.60 L 656.70 283.20 L 662.30 276.60 L 668.50 269.90 L 675.10 263.50 L 682.50 257.30 L 690.70 251.20 L 697.00 247.00 L 703.80 243.00 L 711.10 239.30 L 719.00 235.70 L 726.90 232.60 L 735.40 229.80 L 744.50 227.30 L 754.20 225.20 L 764.10 223.70 L 774.80 222.60 L 786.40 222.00 L 794.90 221.90 L 813.40 222.80 L 823.30 223.80 L 828.70 224.70 L 833.80 226.30 L 838.60 228.40 L 843.20 231.00 L 847.40 234.20 L 851.20 237.80 L 854.70 241.80 L 857.70 246.30 L 862.60 256.40 L 865.20 267.90 L 866.90 277.40 L 868.10 286.70 L 868.70 295.80 L 869.00 305.00 L 868.80 313.90 L 868.20 322.70 L 867.20 331.20 L 865.40 342.60 L 863.00 353.50 L 860.20 364.10 L 856.80 374.40 L 853.10 384.30 L 849.20 393.70 L 840.50 411.60 L 836.00 419.70 L 828.90 431.30 L 819.50 445.90 L 817.30 450.60 L 815.70 455.50 L 814.70 460.50 L 814.20 465.50 L 814.40 470.60 L 815.10 475.60 L 816.40 480.50 L 822.90 495.80 L 827.20 506.80 L 833.90 526.90 Z" fill="#f5d2a9" fill-rule="nonzero" group-id="1,3,6" node-id="61" stroke="none" target-height="333.69998" target-width="247.09998" target-x="621.9" target-y="221.9"></path><path d="M 736.10 393.50 L 738.80 395.00 L 741.50 395.90 L 744.20 396.30 L 746.90 396.10 L 749.60 395.50 L 755.20 393.00 L 758.10 390.90 L 761.70 387.90 L 765.30 384.10 L 772.40 374.90 L 779.00 364.10 L 783.50 355.30 L 787.60 346.10 L 791.20 336.60 L 794.20 327.40 L 797.20 315.30 L 798.80 304.20 L 798.90 295.10 L 797.90 289.20 L 795.90 285.20 L 794.60 283.70 L 792.90 282.60 L 791.00 282.00 L 788.60 281.80 L 782.70 282.90 L 775.60 285.70 L 770.90 288.30 L 766.00 291.50 L 755.90 299.60 L 746.10 309.40 L 737.30 320.40 L 733.30 326.30 L 729.70 332.30 L 726.60 338.40 L 724.10 344.60 L 722.50 349.30 L 720.60 358.40 L 720.30 362.80 L 720.40 367.30 L 721.00 371.50 L 722.10 375.60 L 723.70 379.60 L 725.80 383.30 L 728.50 386.80 L 731.90 390.20 L 736.10 393.50 Z" fill="#624732" fill-rule="nonzero" group-id="1,3,6" node-id="63" stroke="none" target-height="114.5" target-width="78.60004" target-x="720.3" target-y="281.8"></path></g><g node-id="136"><path d="M 270.00 225.30 L 278.90 226.50 L 287.50 228.00 L 295.90 230.10 L 304.10 232.50 L 312.20 235.40 L 320.10 238.70 L 327.80 242.40 L 335.20 246.40 L 342.30 250.80 L 349.30 255.60 L 356.00 260.80 L 362.30 266.30 L 368.40 272.00 L 374.20 278.10 L 379.70 284.60 L 384.80 291.30 L 389.60 298.20 L 394.00 305.40 L 398.00 312.90 L 401.70 320.70 L 391.60 324.30 L 388.40 317.10 L 384.00 308.40 L 376.70 296.30 L 372.20 289.60 L 367.30 283.10 L 361.80 276.60 L 355.50 269.90 L 348.90 263.50 L 341.50 257.30 L 333.40 251.20 L 327.00 247.10 L 320.20 243.10 L 312.90 239.30 L 305.10 235.70 L 297.20 232.60 L 288.70 229.80 L 279.70 227.40 L 270.00 225.30 Z" fill="#68411e" fill-rule="nonzero" group-id="1,3,7" node-id="68" stroke="none" target-height="98.999985" target-width="131.70001" target-x="270" target-y="225.3"></path><path d="M 190.10 526.80 L 186.50 541.00 L 183.40 555.50 L 186.30 551.00 L 189.50 546.90 L 192.90 543.20 L 200.40 536.40 L 210.20 529.60 L 215.80 526.40 L 226.00 521.50 L 233.20 518.80 L 245.90 514.60 L 255.60 510.90 L 265.10 506.70 L 274.50 502.10 L 283.60 497.00 L 292.50 491.40 L 301.10 485.50 L 309.40 479.20 L 317.50 472.50 L 325.40 465.40 L 332.90 457.90 L 340.20 450.20 L 347.10 442.00 L 353.70 433.50 L 360.00 424.70 L 365.90 415.60 L 371.50 406.20 L 376.70 396.60 L 381.60 386.60 L 386.00 376.30 L 390.10 366.00 L 393.70 355.30 L 396.90 344.40 L 399.70 333.30 L 402.10 321.90 L 401.70 320.80 L 391.40 324.30 L 388.30 317.10 L 380.60 302.50 L 372.10 289.50 L 367.30 283.10 L 361.70 276.50 L 355.50 269.80 L 348.90 263.40 L 341.50 257.20 L 333.30 251.10 L 327.00 246.90 L 320.20 242.90 L 312.90 239.20 L 305.00 235.60 L 297.10 232.50 L 288.60 229.70 L 279.50 227.20 L 269.80 225.10 L 259.90 223.60 L 249.20 222.50 L 237.70 221.90 L 229.10 221.80 L 210.60 222.70 L 200.70 223.70 L 195.30 224.60 L 190.20 226.20 L 185.40 228.30 L 180.80 230.90 L 176.60 234.10 L 172.80 237.70 L 169.30 241.70 L 166.30 246.20 L 161.40 256.30 L 158.80 267.80 L 157.10 277.30 L 155.90 286.60 L 155.30 295.70 L 155.00 304.90 L 155.20 313.80 L 155.80 322.60 L 156.80 331.10 L 158.60 342.50 L 161.00 353.40 L 163.90 364.00 L 167.20 374.30 L 170.90 384.20 L 174.80 393.60 L 183.50 411.50 L 188.00 419.60 L 195.10 431.20 L 204.50 445.80 L 206.70 450.50 L 208.30 455.40 L 209.30 460.40 L 209.80 465.40 L 209.60 470.50 L 208.90 475.50 L 207.60 480.40 L 201.10 495.70 L 196.90 506.70 L 190.10 526.80 Z" fill="#f5d2a9" fill-rule="nonzero" group-id="1,3,7" node-id="70" stroke="none" target-height="333.7" target-width="247.1" target-x="155" target-y="221.8"></path><path d="M 287.90 393.40 L 285.20 394.90 L 282.50 395.80 L 279.80 396.20 L 277.10 396.00 L 274.40 395.40 L 268.80 392.90 L 265.90 390.80 L 262.30 387.80 L 258.70 384.00 L 251.60 374.80 L 245.00 364.00 L 240.50 355.20 L 236.40 345.90 L 232.80 336.50 L 229.80 327.30 L 226.80 315.20 L 225.20 304.10 L 225.10 295.00 L 226.10 289.10 L 228.10 285.10 L 229.40 283.60 L 231.10 282.50 L 233.00 281.90 L 235.40 281.70 L 241.30 282.80 L 248.40 285.60 L 253.10 288.20 L 258.00 291.40 L 268.10 299.50 L 277.90 309.30 L 286.70 320.30 L 290.70 326.20 L 294.30 332.20 L 297.40 338.30 L 299.90 344.50 L 301.50 349.20 L 303.40 358.30 L 303.70 362.70 L 303.60 367.20 L 303.00 371.40 L 301.90 375.50 L 300.30 379.50 L 298.20 383.20 L 295.50 386.70 L 292.10 390.10 L 287.90 393.40 Z" fill="#624732" fill-rule="nonzero" group-id="1,3,7" node-id="72" stroke="none" target-height="114.5" target-width="78.600006" target-x="225.1" target-y="281.7"></path></g></g><g node-id="133"><g node-id="137"><path d="M 631.20 553.10 L 625.50 552.20 L 619.90 551.00 L 614.50 549.30 L 609.30 547.30 L 599.30 542.10 L 590.30 535.70 L 586.10 532.00 L 582.30 528.00 L 578.80 523.70 L 575.50 519.20 L 572.60 514.40 L 570.10 509.40 L 568.00 504.10 L 566.20 498.60 L 564.20 489.30 L 563.60 480.10 L 563.90 475.60 L 564.70 471.30 L 565.90 467.10 L 567.80 463.10 L 570.30 459.20 L 572.50 456.70 L 575.20 454.20 L 578.30 451.90 L 582.00 449.60 L 585.70 447.80 L 595.10 444.70 L 600.90 443.50 L 605.30 443.00 L 609.80 442.80 L 614.30 443.20 L 618.80 443.90 L 623.40 445.10 L 628.90 447.10 L 634.50 449.60 L 640.10 452.80 L 645.90 456.60 L 651.40 460.70 L 662.50 470.30 L 668.10 475.90 L 675.20 483.60 L 682.20 491.90 L 689.30 501.00 L 702.60 519.80 L 709.00 529.80 L 718.20 545.00 L 726.80 560.30 L 734.90 575.70 L 742.10 590.40 L 754.50 618.20 L 763.30 641.50 L 766.40 651.40 L 768.10 658.40 L 777.00 696.50 L 778.90 705.90 L 780.20 714.80 L 780.90 726.20 L 780.60 731.30 L 779.30 738.60 L 776.80 744.80 L 775.00 747.60 L 772.80 750.20 L 770.20 752.50 L 767.20 754.50 L 764.00 756.10 L 760.20 757.40 L 755.70 758.50 L 750.40 759.20 L 689.80 764.80 L 678.90 765.30 L 671.90 765.20 L 668.50 764.70 L 666.50 764.00 L 665.50 763.30 L 665.10 762.40 L 665.10 759.90 L 665.70 756.90 L 667.10 753.30 L 669.00 749.90 L 671.80 746.00 L 675.80 741.60 L 680.10 737.70 L 685.70 733.40 L 692.70 728.80 L 700.00 724.70 L 708.80 720.40 L 722.80 714.50 L 725.80 712.60 L 728.40 710.50 L 730.80 708.10 L 732.80 705.40 L 735.00 701.70 L 736.70 697.60 L 738.00 693.10 L 738.90 688.10 L 739.40 677.70 L 738.30 666.00 L 736.70 658.00 L 734.50 649.70 L 731.60 641.00 L 728.10 632.50 L 724.00 623.80 L 719.30 615.10 L 714.10 606.60 L 708.40 598.30 L 702.10 590.20 L 695.40 582.40 L 688.20 575.00 L 680.60 568.10 L 676.00 564.50 L 671.80 561.70 L 667.80 559.60 L 663.70 557.90 L 655.90 555.70 L 649.90 554.70 L 631.20 553.10 Z" fill="#f5d2a9" fill-rule="nonzero" group-id="1,4,8" node-id="80" stroke="none" target-height="322.5" target-width="217.30005" target-x="563.6" target-y="442.8"></path><path d="M 633.00 508.30 L 632.80 511.50 L 632.20 514.50 L 631.20 517.40 L 629.80 520.20 L 628.10 522.80 L 626.00 525.20 L 623.60 527.30 L 621.00 529.00 L 618.20 530.40 L 615.30 531.40 L 612.30 532.00 L 609.10 532.20 L 605.90 532.00 L 602.90 531.40 L 600.00 530.40 L 597.20 529.00 L 594.60 527.30 L 592.20 525.20 L 590.10 522.80 L 588.40 520.20 L 587.00 517.40 L 586.00 514.50 L 585.40 511.50 L 585.20 508.30 L 585.40 505.10 L 586.00 502.10 L 587.00 499.20 L 588.40 496.40 L 590.10 493.80 L 592.20 491.40 L 594.60 489.30 L 597.20 487.60 L 600.00 486.20 L 602.90 485.20 L 605.90 484.60 L 609.10 484.40 L 612.30 484.60 L 615.30 485.20 L 618.20 486.20 L 621.00 487.60 L 623.60 489.30 L 626.00 491.40 L 628.10 493.80 L 629.80 496.40 L 631.20 499.20 L 632.20 502.10 L 632.80 505.10 L 633.00 508.30 Z" fill="#200802" fill-rule="nonzero" group-id="1,4,8" node-id="82" stroke="none" target-height="47.80002" target-width="47.799988" target-x="585.2" target-y="484.4"></path><path d="M 604.30 498.40 L 604.00 499.90 L 603.20 501.10 L 602.00 501.90 L 600.50 502.20 L 599.00 501.90 L 597.80 501.10 L 597.00 499.90 L 596.70 498.40 L 597.00 496.90 L 597.80 495.70 L 599.00 494.90 L 600.50 494.60 L 602.00 494.90 L 603.20 495.70 L 604.00 496.90 L 604.30 498.40 Z" fill="#f5d2a9" fill-rule="nonzero" group-id="1,4,8" node-id="84" stroke="none" target-height="7.600006" target-width="7.5999756" target-x="596.7" target-y="494.6"></path></g><g node-id="138"><path d="M 392.80 553.10 L 398.50 552.20 L 404.10 551.00 L 409.50 549.30 L 414.70 547.30 L 424.70 542.10 L 429.30 539.10 L 433.70 535.70 L 437.90 532.00 L 441.70 528.00 L 445.20 523.70 L 448.50 519.20 L 451.40 514.40 L 453.90 509.40 L 456.00 504.10 L 457.80 498.60 L 459.80 489.30 L 460.40 480.10 L 460.10 475.60 L 459.30 471.30 L 458.10 467.10 L 456.20 463.10 L 453.70 459.20 L 451.50 456.70 L 448.80 454.20 L 445.70 451.90 L 442.00 449.60 L 438.30 447.80 L 428.90 444.70 L 423.10 443.50 L 418.70 443.00 L 414.20 442.80 L 409.70 443.20 L 405.20 443.90 L 400.60 445.10 L 395.10 447.10 L 389.50 449.60 L 383.90 452.80 L 378.10 456.60 L 372.60 460.70 L 361.50 470.30 L 355.90 475.90 L 348.80 483.60 L 341.80 491.90 L 334.70 501.00 L 321.40 519.80 L 315.00 529.80 L 305.80 545.00 L 297.20 560.30 L 289.10 575.70 L 281.90 590.40 L 269.50 618.20 L 260.70 641.50 L 257.60 651.40 L 255.90 658.40 L 247.00 696.50 L 245.20 705.90 L 243.80 714.80 L 243.20 726.20 L 243.40 731.30 L 244.70 738.60 L 247.30 744.80 L 249.00 747.60 L 251.20 750.20 L 253.80 752.50 L 256.80 754.50 L 260.00 756.10 L 263.80 757.40 L 268.30 758.50 L 273.60 759.20 L 334.30 764.80 L 345.10 765.30 L 352.10 765.20 L 355.50 764.70 L 357.50 764.00 L 358.50 763.30 L 358.90 762.40 L 358.90 759.90 L 358.30 756.90 L 356.90 753.30 L 355.00 749.90 L 352.20 746.00 L 348.20 741.60 L 343.90 737.70 L 338.30 733.40 L 331.30 728.80 L 324.00 724.70 L 315.20 720.40 L 301.20 714.50 L 298.20 712.60 L 295.60 710.50 L 293.20 708.10 L 291.20 705.40 L 289.00 701.70 L 287.30 697.60 L 286.00 693.10 L 285.10 688.10 L 284.60 677.70 L 285.70 666.00 L 287.30 658.00 L 289.50 649.70 L 292.40 641.00 L 295.90 632.50 L 300.00 623.80 L 304.70 615.10 L 309.90 606.60 L 315.60 598.30 L 321.90 590.20 L 328.60 582.40 L 335.80 575.00 L 343.40 568.10 L 348.00 564.50 L 352.20 561.70 L 356.20 559.60 L 360.30 557.90 L 368.10 555.70 L 374.10 554.70 L 392.80 553.10 Z" fill="#f5d2a9" fill-rule="nonzero" group-id="1,4,9" node-id="89" stroke="none" target-height="322.5" target-width="217.2" target-x="243.2" target-y="442.8"></path><path d="M 438.80 508.30 L 438.60 511.50 L 438.00 514.50 L 437.00 517.40 L 435.60 520.20 L 433.90 522.80 L 431.80 525.20 L 429.40 527.30 L 426.80 529.00 L 424.00 530.40 L 421.10 531.40 L 418.10 532.00 L 414.90 532.20 L 411.70 532.00 L 408.70 531.40 L 405.80 530.40 L 403.00 529.00 L 400.40 527.30 L 398.00 525.20 L 395.90 522.80 L 394.20 520.20 L 392.80 517.40 L 391.80 514.50 L 391.20 511.50 L 391.00 508.30 L 391.20 505.00 L 391.90 501.90 L 392.90 499.00 L 396.00 493.70 L 400.30 489.40 L 405.60 486.30 L 408.50 485.30 L 411.60 484.60 L 414.90 484.40 L 418.20 484.60 L 421.30 485.30 L 424.20 486.30 L 427.00 487.70 L 431.80 491.40 L 435.50 496.20 L 436.90 499.00 L 437.90 501.90 L 438.60 505.00 L 438.80 508.30 Z" fill="#200802" fill-rule="nonzero" group-id="1,4,9" node-id="91" stroke="none" target-height="47.80002" target-width="47.799988" target-x="391" target-y="484.4"></path><path d="M 427.30 498.40 L 427.00 499.90 L 426.20 501.10 L 425.00 501.90 L 423.50 502.20 L 422.00 501.90 L 420.80 501.10 L 420.00 499.90 L 419.70 498.40 L 420.00 496.90 L 420.80 495.70 L 422.00 494.90 L 423.50 494.60 L 425.00 494.90 L 426.20 495.70 L 427.00 496.90 L 427.30 498.40 Z" fill="#f5d2a9" fill-rule="nonzero" group-id="1,4,9" node-id="93" stroke="none" target-height="7.600006" target-width="7.5999756" target-x="419.7" target-y="494.6"></path></g></g><path d="M 639.10 596.50 L 627.40 580.50 L 599.50 539.50 L 583.80 518.00 L 575.40 507.80 L 567.00 498.30 L 561.10 492.20 L 555.30 486.80 L 549.50 482.00 L 543.30 477.50 L 537.30 473.80 L 531.30 470.90 L 526.60 469.10 L 521.90 467.80 L 517.30 467.10 L 512.60 466.80 L 506.90 467.10 L 502.30 467.80 L 497.60 469.10 L 492.90 470.90 L 486.90 473.80 L 480.90 477.50 L 474.70 482.00 L 468.90 486.80 L 463.10 492.20 L 457.20 498.30 L 448.80 507.80 L 440.40 518.00 L 432.40 528.70 L 424.70 539.50 L 396.80 580.50 L 385.10 596.50 L 378.20 604.00 L 374.30 607.60 L 348.60 628.50 L 342.40 633.90 L 336.70 639.50 L 333.20 643.50 L 330.20 647.60 L 327.50 651.80 L 325.30 656.30 L 323.60 661.00 L 322.40 666.10 L 322.00 669.90 L 322.20 678.30 L 323.00 682.90 L 324.90 690.20 L 327.10 696.70 L 329.70 702.40 L 332.70 707.50 L 336.20 712.40 L 339.90 716.70 L 344.00 720.50 L 348.30 723.80 L 352.90 726.70 L 357.80 729.30 L 363.00 731.40 L 368.40 733.20 L 375.80 734.90 L 383.50 736.20 L 391.60 736.90 L 408.00 736.90 L 416.40 736.30 L 429.00 734.90 L 441.40 732.90 L 453.70 730.50 L 492.70 721.30 L 499.20 720.40 L 512.10 719.60 L 518.60 719.80 L 531.50 721.30 L 559.00 727.90 L 582.80 732.90 L 595.20 734.90 L 607.80 736.30 L 624.50 737.10 L 632.60 736.90 L 640.70 736.20 L 648.40 734.90 L 655.80 733.20 L 661.20 731.40 L 666.40 729.30 L 671.30 726.70 L 675.90 723.80 L 680.20 720.50 L 684.30 716.70 L 688.00 712.40 L 691.50 707.50 L 694.50 702.40 L 697.10 696.70 L 699.30 690.20 L 701.20 682.90 L 702.30 673.90 L 701.80 666.10 L 700.60 661.10 L 698.90 656.30 L 696.70 651.80 L 694.00 647.60 L 691.00 643.50 L 687.50 639.60 L 681.80 634.00 L 675.60 628.50 L 649.90 607.70 L 646.00 604.00 L 639.10 596.50 Z" fill="#f5d2a9" fill-rule="nonzero" group-id="1" node-id="97" stroke="none" target-height="270.3" target-width="380.3" target-x="322" target-y="466.8"></path><path d="M 641.40 763.20 L 641.20 760.30 L 640.50 757.70 L 639.50 755.30 L 638.10 753.10 L 635.70 750.40 L 632.80 747.90 L 629.20 745.70 L 621.30 742.00 L 616.70 740.40 L 602.10 736.70 L 553.80 726.80 L 543.50 725.30 L 533.10 724.20 L 522.60 723.50 L 512.00 723.20 L 501.40 723.50 L 490.90 724.20 L 480.60 725.30 L 470.20 726.80 L 421.90 736.70 L 407.30 740.40 L 402.70 742.00 L 394.80 745.70 L 391.20 747.90 L 388.30 750.40 L 385.90 753.10 L 384.50 755.30 L 383.50 757.70 L 382.80 760.30 L 382.60 763.20 L 383.40 771.90 L 385.60 779.40 L 388.90 785.80 L 391.40 789.10 L 394.10 792.10 L 397.00 794.60 L 400.30 796.90 L 403.80 798.70 L 407.40 800.20 L 411.10 801.20 L 415.00 801.90 L 418.90 802.10 L 422.90 802.00 L 426.90 801.40 L 430.90 800.30 L 434.80 798.80 L 438.60 796.90 L 442.30 794.50 L 445.90 791.50 L 451.90 787.50 L 458.30 784.00 L 465.30 780.90 L 472.60 778.30 L 480.10 776.10 L 487.90 774.40 L 495.90 773.20 L 503.80 772.40 L 511.90 772.00 L 520.00 772.40 L 527.90 773.20 L 535.90 774.40 L 543.70 776.10 L 551.20 778.30 L 558.50 780.90 L 565.50 784.00 L 571.90 787.50 L 585.20 796.90 L 589.00 798.80 L 592.90 800.30 L 596.90 801.30 L 600.90 801.90 L 604.90 802.10 L 608.80 801.90 L 612.70 801.20 L 616.40 800.10 L 620.00 798.70 L 623.50 796.80 L 626.80 794.60 L 629.70 792.10 L 632.40 789.10 L 636.80 782.80 L 639.70 775.70 L 640.60 771.90 L 641.20 767.80 L 641.40 763.20 Z" fill="#f5d2a9" fill-rule="nonzero" group-id="1" node-id="99" stroke="none" target-height="78.89996" target-width="258.80002" target-x="382.6" target-y="723.2"></path><path d="M 537.80 722.70 L 524.90 720.40 L 518.50 719.80 L 505.50 719.80 L 492.60 721.30 L 461.50 728.70 L 467.80 729.60 L 474.50 729.90 L 481.30 729.80 L 512.00 727.30 L 535.90 729.60 L 542.70 730.00 L 549.50 730.00 L 556.20 729.60 L 562.50 728.70 L 537.80 722.70 Z" fill="#200802" fill-rule="nonzero" group-id="1" node-id="101" stroke="none" target-height="10.200012" target-width="101" target-x="461.5" target-y="719.8"></path><g node-id="134"><path d="M 499.60 606.30 L 492.90 610.30 L 486.70 614.60 L 481.00 619.10 L 475.70 623.80 L 470.70 629.00 L 466.40 634.30 L 462.50 639.80 L 459.20 645.50 L 456.40 651.50 L 454.30 657.70 L 452.70 663.90 L 451.80 670.40 L 451.80 673.10 L 452.50 675.60 L 453.70 678.10 L 455.40 680.40 L 457.60 682.30 L 460.50 684.00 L 489.60 697.10 L 494.30 698.90 L 499.20 700.30 L 504.20 701.20 L 509.40 701.60 L 514.50 701.60 L 519.70 701.20 L 524.70 700.30 L 529.60 698.90 L 534.30 697.10 L 563.40 684.00 L 566.30 682.30 L 568.60 680.40 L 570.30 678.10 L 571.50 675.60 L 572.10 673.10 L 572.10 670.40 L 571.20 663.90 L 569.60 657.60 L 567.50 651.50 L 564.70 645.50 L 561.40 639.80 L 557.50 634.20 L 553.20 628.90 L 548.20 623.80 L 542.90 619.00 L 537.20 614.50 L 531.00 610.30 L 524.30 606.30 L 519.10 604.20 L 516.30 603.60 L 510.60 603.30 L 504.80 604.20 L 499.60 606.30 Z" fill="#200802" fill-rule="nonzero" group-id="1,5" node-id="105" stroke="none" target-height="98.29999" target-width="120.29999" target-x="451.8" target-y="603.3"></path><g node-id="139"><path d="M 548.50 654.60 L 540.90 656.10 L 535.50 658.50 L 532.30 660.60 L 530.00 662.90 L 528.20 665.40 L 526.90 668.10 L 526.00 670.70 L 525.70 673.20 L 526.10 678.10 L 526.80 680.10 L 527.80 681.70 L 528.90 682.80 L 530.10 683.50 L 531.50 683.80 L 533.50 683.70 L 535.70 683.10 L 538.20 681.90 L 541.70 679.50 L 545.30 676.30 L 548.60 672.70 L 553.10 666.20 L 555.00 661.50 L 555.40 659.30 L 555.20 657.50 L 554.50 656.20 L 552.60 654.90 L 548.50 654.60 Z" fill="#0a0907" fill-rule="nonzero" group-id="1,5,10" node-id="109" stroke="none" target-height="29.200012" target-width="29.700012" target-x="525.7" target-y="654.6"></path><path d="M 475.50 654.60 L 483.10 656.10 L 488.50 658.50 L 491.70 660.60 L 494.00 662.90 L 495.80 665.40 L 497.10 668.10 L 498.00 670.70 L 498.30 673.20 L 497.90 678.10 L 497.20 680.10 L 496.20 681.70 L 495.10 682.80 L 493.90 683.50 L 492.50 683.80 L 490.50 683.70 L 488.30 683.10 L 485.80 681.90 L 482.30 679.50 L 478.70 676.30 L 475.40 672.70 L 470.90 666.20 L 469.00 661.50 L 468.60 659.30 L 468.80 657.50 L 469.50 656.20 L 471.40 654.90 L 475.50 654.60 Z" fill="#0a0907" fill-rule="nonzero" group-id="1,5,10" node-id="111" stroke="none" target-height="29.200012" target-width="29.699982" target-x="468.6" target-y="654.6"></path></g></g></g><g node-id="131"><path d="M 655.40 641.30 L 916.00 579.30 L 917.30 578.80 L 919.30 576.90 L 920.00 574.40 L 919.90 572.90 L 919.40 571.60 L 917.50 569.60 L 914.90 568.90 L 913.50 569.00 L 652.90 631.00 L 651.60 631.50 L 649.60 633.40 L 648.90 635.90 L 649.00 637.40 L 649.70 639.10 L 650.90 640.40 L 652.40 641.20 L 654.20 641.50 L 655.40 641.30 Z" fill="#f5d2a9" fill-rule="nonzero" group-id="2" node-id="118" stroke="none" target-height="72.599976" target-width="271.09998" target-x="648.9" target-y="568.9"></path><path d="M 954.70 640.70 L 659.10 653.00 L 656.50 653.80 L 654.60 655.80 L 654.20 657.10 L 654.00 658.50 L 654.80 661.10 L 656.70 662.90 L 657.90 663.40 L 659.50 663.60 L 954.80 651.30 L 956.20 651.00 L 958.50 649.60 L 959.70 647.20 L 959.90 645.80 L 959.70 644.40 L 958.40 642.20 L 956.10 640.90 L 954.70 640.70 Z" fill="#f5d2a9" fill-rule="nonzero" group-id="2" node-id="120" stroke="none" target-height="22.899963" target-width="305.90002" target-x="654" target-y="640.7"></path><path d="M 921.40 715.10 L 661.50 682.60 L 660.00 682.50 L 658.70 682.90 L 657.50 683.60 L 655.90 685.80 L 655.60 687.20 L 655.60 688.70 L 656.70 691.10 L 658.80 692.70 L 660.20 693.10 L 920.80 725.70 L 922.10 725.50 L 924.30 724.40 L 925.70 722.30 L 926.10 721.00 L 926.00 719.50 L 925.00 717.10 L 922.80 715.50 L 921.40 715.10 Z" fill="#f5d2a9" fill-rule="nonzero" group-id="2" node-id="122" stroke="none" target-height="43.200012" target-width="270.5" target-x="655.6" target-y="682.5"></path><path d="M 371.10 631.00 L 110.50 569.00 L 109.00 568.90 L 106.50 569.60 L 104.60 571.60 L 104.10 572.90 L 104.00 574.40 L 104.70 576.90 L 106.70 578.80 L 108.00 579.30 L 368.60 641.30 L 369.80 641.50 L 371.50 641.20 L 373.10 640.40 L 374.30 639.10 L 375.00 637.40 L 375.10 635.90 L 374.40 633.40 L 372.40 631.50 L 371.10 631.00 Z" fill="#f5d2a9" fill-rule="nonzero" group-id="2" node-id="124" stroke="none" target-height="72.599976" target-width="271.1" target-x="104" target-y="568.9"></path><path d="M 364.90 653.00 L 69.50 640.80 L 67.90 641.00 L 65.60 642.30 L 64.20 644.50 L 64.00 645.90 L 64.20 647.30 L 65.40 649.70 L 67.70 651.10 L 69.10 651.40 L 364.40 663.70 L 366.00 663.50 L 368.30 662.20 L 369.70 660.00 L 369.90 658.60 L 369.80 657.10 L 368.60 654.70 L 366.30 653.30 L 364.90 653.00 Z" fill="#f5d2a9" fill-rule="nonzero" group-id="2" node-id="126" stroke="none" target-height="22.900024" target-width="305.9" target-x="64" target-y="640.8"></path><path d="M 362.50 682.60 L 102.60 715.10 L 101.20 715.50 L 99.10 717.10 L 98.00 719.50 L 98.00 721.00 L 98.30 722.30 L 99.80 724.40 L 102.00 725.50 L 103.30 725.70 L 363.90 693.10 L 365.30 692.70 L 367.40 691.10 L 368.50 688.70 L 368.50 687.20 L 368.10 685.80 L 366.50 683.60 L 364.00 682.60 L 362.50 682.60 Z" fill="#f5d2a9" fill-rule="nonzero" group-id="2" node-id="128" stroke="none" target-height="43.100037" target-width="270.5" target-x="98" target-y="682.6"></path></g></svg>